HIERARCHY
ROOT Hips
{
	OFFSET -0.753655 88.679527 4.807127
	CHANNELS 6 Xposition Yposition Zposition Zrotation Yrotation Xrotation 
	JOINT Spine
	{
		OFFSET -0.000000 8.814246 -2.080107
		CHANNELS 3 Zrotation Yrotation Xrotation
		JOINT Spine1
		{
			OFFSET -0.000000 8.844141 0.000000
			CHANNELS 3 Zrotation Yrotation Xrotation
			JOINT Spine2
			{
				OFFSET 0.000000 11.682268 0.000000
				CHANNELS 3 Zrotation Yrotation Xrotation
				JOINT Spine3
				{
					OFFSET -0.000000 11.746700 0.000000
					CHANNELS 3 Zrotation Yrotation Xrotation
					JOINT Neck
					{
						OFFSET -0.000000 17.658264 0.000000
						CHANNELS 3 Zrotation Yrotation Xrotation
						JOINT Neck1
						{
							OFFSET 0.000000 5.101515 -0.000000
							CHANNELS 3 Zrotation Yrotation Xrotation
							JOINT Head
							{
								OFFSET -0.000000 5.101515 -0.000000
								CHANNELS 3 Zrotation Yrotation Xrotation
								JOINT HeadEnd
								{
									OFFSET 0.000000 11.655085 -0.000000
									CHANNELS 3 Zrotation Yrotation Xrotation
									End Site
									{
										OFFSET 0.000000 0.000000 0.000000
									}
								}
							}
						}
					}
					JOINT RightShoulder
					{
						OFFSET -2.625389 11.175210 -0.000000
						CHANNELS 3 Zrotation Yrotation Xrotation
						JOINT RightArm
						{
							OFFSET 0.000000 10.434715 -0.000000
							CHANNELS 3 Zrotation Yrotation Xrotation
							JOINT RightForeArm
							{
								OFFSET -0.000000 29.628420 0.000000
								CHANNELS 3 Zrotation Yrotation Xrotation
								JOINT RightHand
								{
									OFFSET -0.000000 22.857611 0.000000
									CHANNELS 3 Zrotation Yrotation Xrotation
									JOINT RightHandThumb1
									{
										OFFSET -2.867323 3.959563 2.944291
										CHANNELS 3 Zrotation Yrotation Xrotation
										JOINT RightHandThumb2
										{
											OFFSET -0.000000 3.350399 0.000000
											CHANNELS 3 Zrotation Yrotation Xrotation
											JOINT RightHandThumb3
											{
												OFFSET -0.000000 3.756509 -0.000000
												CHANNELS 3 Zrotation Yrotation Xrotation
												JOINT RightHandThumb4
												{
													OFFSET -0.000000 3.147345 0.000000
													CHANNELS 3 Zrotation Yrotation Xrotation
													End Site
													{
														OFFSET 0.000000 0.000000 0.000000
													}
												}
											}
										}
									}
									JOINT RightHandIndex1
									{
										OFFSET -0.086752 10.030893 2.345280
										CHANNELS 3 Zrotation Yrotation Xrotation
										JOINT RightHandIndex2
										{
											OFFSET 0.000000 4.061090 -0.000000
											CHANNELS 3 Zrotation Yrotation Xrotation
											JOINT RightHandIndex3
											{
												OFFSET 0.000000 3.248873 -0.000000
												CHANNELS 3 Zrotation Yrotation Xrotation
												JOINT RightHandIndex4
												{
													OFFSET 0.000000 2.639709 0.000000
													CHANNELS 3 Zrotation Yrotation Xrotation
													End Site
													{
														OFFSET 0.000000 0.000000 0.000000
													}
												}
											}
										}
									}
									JOINT RightHandMiddle1
									{
										OFFSET 0.104102 9.502952 0.006768
										CHANNELS 3 Zrotation Yrotation Xrotation
										JOINT RightHandMiddle2
										{
											OFFSET 0.000000 4.568727 0.000000
											CHANNELS 3 Zrotation Yrotation Xrotation
											JOINT RightHandMiddle3
											{
												OFFSET 0.000000 3.654981 -0.000000
												CHANNELS 3 Zrotation Yrotation Xrotation
												JOINT RightHandMiddle4
												{
													OFFSET -0.000000 2.741236 0.000000
													CHANNELS 3 Zrotation Yrotation Xrotation
													End Site
													{
														OFFSET 0.000000 0.000000 0.000000
													}
												}
											}
										}
									}
									JOINT RightHandRing1
									{
										OFFSET 0.086752 8.921708 -2.267442
										CHANNELS 3 Zrotation Yrotation Xrotation
										JOINT RightHandRing2
										{
											OFFSET 0.000000 4.061090 -0.000000
											CHANNELS 3 Zrotation Yrotation Xrotation
											JOINT RightHandRing3
											{
												OFFSET -0.000000 3.654981 0.000000
												CHANNELS 3 Zrotation Yrotation Xrotation
												JOINT RightHandRing4
												{
													OFFSET -0.000000 2.741236 0.000000
													CHANNELS 3 Zrotation Yrotation Xrotation
													End Site
													{
														OFFSET 0.000000 0.000000 0.000000
													}
												}
											}
										}
									}
									JOINT RightHandPinky1
									{
										OFFSET -0.173504 7.976997 -4.467199
										CHANNELS 3 Zrotation Yrotation Xrotation
										JOINT RightHandPinky2
										{
											OFFSET -0.000000 3.350399 0.000000
											CHANNELS 3 Zrotation Yrotation Xrotation
											JOINT RightHandPinky3
											{
												OFFSET 0.000000 2.842763 0.000000
												CHANNELS 3 Zrotation Yrotation Xrotation
												JOINT RightHandPinky4
												{
													OFFSET 0.000000 2.639709 0.000000
													CHANNELS 3 Zrotation Yrotation Xrotation
													End Site
													{
														OFFSET 0.000000 0.000000 0.000000
													}
												}
											}
										}
									}
									JOINT RightForeArmEnd
									{
										OFFSET 0.000000 0.000000 0.000000
										CHANNELS 3 Zrotation Yrotation Xrotation
										End Site
										{
											OFFSET 0.000000 0.000000 0.000000
										}
									}
								}
								JOINT RightArmEnd
								{
									OFFSET 0.000000 0.000000 0.000000
									CHANNELS 3 Zrotation Yrotation Xrotation
									End Site
									{
										OFFSET 0.000000 0.000000 0.000000
									}
								}
							}
						}
					}
					JOINT LeftShoulder
					{
						OFFSET 2.625389 11.175210 0.000000
						CHANNELS 3 Zrotation Yrotation Xrotation
						JOINT LeftArm
						{
							OFFSET -0.000000 10.813635 -0.000000
							CHANNELS 3 Zrotation Yrotation Xrotation
							JOINT LeftForeArm
							{
								OFFSET -0.000000 28.724781 -0.000000
								CHANNELS 3 Zrotation Yrotation Xrotation
								JOINT LeftHand
								{
									OFFSET 0.644384 25.716167 -0.328871
									CHANNELS 3 Zrotation Yrotation Xrotation
									JOINT LeftHandThumb1
									{
										OFFSET 2.867323 3.959563 2.944291
										CHANNELS 3 Zrotation Yrotation Xrotation
										JOINT LeftHandThumb2
										{
											OFFSET 0.000000 3.350399 0.000000
											CHANNELS 3 Zrotation Yrotation Xrotation
											JOINT LeftHandThumb3
											{
												OFFSET -0.000000 3.756509 -0.000000
												CHANNELS 3 Zrotation Yrotation Xrotation
												JOINT LeftHandThumb4
												{
													OFFSET 0.000000 3.100000 0.000000
													CHANNELS 3 Zrotation Yrotation Xrotation
													End Site
													{
														OFFSET 0.000000 0.000000 0.000000
													}
												}
											}
										}
									}
									JOINT LeftHandIndex1
									{
										OFFSET 0.086752 10.030893 2.345280
										CHANNELS 3 Zrotation Yrotation Xrotation
										JOINT LeftHandIndex2
										{
											OFFSET 0.000000 4.061090 0.000000
											CHANNELS 3 Zrotation Yrotation Xrotation
											JOINT LeftHandIndex3
											{
												OFFSET -0.000000 3.248873 -0.000000
												CHANNELS 3 Zrotation Yrotation Xrotation
												JOINT LeftHandIndex4
												{
													OFFSET 0.000000 2.639709 0.000000
													CHANNELS 3 Zrotation Yrotation Xrotation
													End Site
													{
														OFFSET 0.000000 0.000000 0.000000
													}
												}
											}
										}
									}
									JOINT LeftHandMiddle1
									{
										OFFSET -0.104102 9.502952 0.006768
										CHANNELS 3 Zrotation Yrotation Xrotation
										JOINT LeftHandMiddle2
										{
											OFFSET -0.000000 4.568727 -0.000000
											CHANNELS 3 Zrotation Yrotation Xrotation
											JOINT LeftHandMiddle3
											{
												OFFSET -0.000000 3.654981 -0.000000
												CHANNELS 3 Zrotation Yrotation Xrotation
												JOINT LeftHandMiddle4
												{
													OFFSET 0.000000 2.741236 0.000000
													CHANNELS 3 Zrotation Yrotation Xrotation
													End Site
													{
														OFFSET 0.000000 0.000000 0.000000
													}
												}
											}
										}
									}
									JOINT LeftHandRing1
									{
										OFFSET -0.086752 8.921708 -2.267442
										CHANNELS 3 Zrotation Yrotation Xrotation
										JOINT LeftHandRing2
										{
											OFFSET 0.000000 4.061090 0.000000
											CHANNELS 3 Zrotation Yrotation Xrotation
											JOINT LeftHandRing3
											{
												OFFSET 0.000000 3.654981 -0.000000
												CHANNELS 3 Zrotation Yrotation Xrotation
												JOINT LeftHandRing4
												{
													OFFSET -0.000000 2.741236 -0.000000
													CHANNELS 3 Zrotation Yrotation Xrotation
													End Site
													{
														OFFSET 0.000000 0.000000 0.000000
													}
												}
											}
										}
									}
									JOINT LeftHandPinky1
									{
										OFFSET 0.173504 7.976997 -4.467199
										CHANNELS 3 Zrotation Yrotation Xrotation
										JOINT LeftHandPinky2
										{
											OFFSET -0.000000 3.350399 -0.000000
											CHANNELS 3 Zrotation Yrotation Xrotation
											JOINT LeftHandPinky3
											{
												OFFSET 0.000000 2.842763 -0.000000
												CHANNELS 3 Zrotation Yrotation Xrotation
												JOINT LeftHandPinky4
												{
													OFFSET -0.000000 2.639709 -0.000000
													CHANNELS 3 Zrotation Yrotation Xrotation
													End Site
													{
														OFFSET 0.000000 0.000000 0.000000
													}
												}
											}
										}
									}
									JOINT LeftForeArmEnd
									{
										OFFSET 0.000000 0.000000 0.000000
										CHANNELS 3 Zrotation Yrotation Xrotation
										End Site
										{
											OFFSET 0.000000 0.000000 0.000000
										}
									}
								}
								JOINT LeftArmEnd
								{
									OFFSET 0.000000 0.000000 0.000000
									CHANNELS 3 Zrotation Yrotation Xrotation
									End Site
									{
										OFFSET 0.000000 0.000000 0.000000
									}
								}
							}
						}
					}
				}
			}
		}
	}
	JOINT RightUpLeg
	{
		OFFSET -11.289943 -0.000000 0.000000
		CHANNELS 3 Zrotation Yrotation Xrotation
		JOINT RightLeg
		{
			OFFSET 0.000000 -38.200325 -0.000000
			CHANNELS 3 Zrotation Yrotation Xrotation
			JOINT RightFoot
			{
				OFFSET -0.000000 -39.900856 0.000000
				CHANNELS 3 Zrotation Yrotation Xrotation
				JOINT RightToeBase
				{
					OFFSET 0.000000 0.000000 15.261641
					CHANNELS 3 Zrotation Yrotation Xrotation
					JOINT RightToeBaseEnd
					{
						OFFSET 0.000000 0.000000 7.370709
						CHANNELS 3 Zrotation Yrotation Xrotation
						End Site
						{
							OFFSET 0.000000 0.000000 0.000000
						}
					}
				}
				JOINT RightLegEnd
				{
					OFFSET 0.000000 0.000000 0.000000
					CHANNELS 3 Zrotation Yrotation Xrotation
					End Site
					{
						OFFSET 0.000000 0.000000 0.000000
					}
				}
			}
			JOINT RightUpLegEnd
			{
				OFFSET 0.000000 0.000000 0.000000
				CHANNELS 3 Zrotation Yrotation Xrotation
				End Site
				{
					OFFSET 0.000000 0.000000 0.000000
				}
			}
		}
	}
	JOINT LeftUpLeg
	{
		OFFSET 11.315661 0.000000 0.000000
		CHANNELS 3 Zrotation Yrotation Xrotation
		JOINT LeftLeg
		{
			OFFSET 0.000000 -38.200325 -0.000000
			CHANNELS 3 Zrotation Yrotation Xrotation
			JOINT LeftFoot
			{
				OFFSET 0.000000 -39.900856 -0.000000
				CHANNELS 3 Zrotation Yrotation Xrotation
				JOINT LeftToeBase
				{
					OFFSET 0.000000 -0.000000 15.261641
					CHANNELS 3 Zrotation Yrotation Xrotation
					JOINT LeftToeBaseEnd
					{
						OFFSET -0.000000 0.000000 7.539996
						CHANNELS 3 Zrotation Yrotation Xrotation
						End Site
						{
							OFFSET 0.000000 0.000000 0.000000
						}
					}
				}
				JOINT LeftLegEnd
				{
					OFFSET 0.000000 0.000000 0.000000
					CHANNELS 3 Zrotation Yrotation Xrotation
					End Site
					{
						OFFSET 0.000000 0.000000 0.000000
					}
				}
			}
			JOINT LeftUpLegEnd
			{
				OFFSET 0.000000 0.000000 0.000000
				CHANNELS 3 Zrotation Yrotation Xrotation
				End Site
				{
					OFFSET 0.000000 0.000000 0.000000
				}
			}
		}
	}
}
MOTION
Frames: 5
Frame Time: 0.016667
-1.432220 88.444481 4.744239 -0.012800 -0.494572 -12.990366 -1.602241 -0.033210 8.384154 -0.537693 0.013545 2.548548 1.827535 -1.227517 8.709550 1.754331 -0.452547 4.932695 -0.718474 1.049694 3.548046 0.636891 1.388311 -3.465462 -0.282686 0.478443 -18.328932 0.000000 0.000000 0.000000 91.183815 -0.225156 7.367208 68.480255 -20.899778 3.373429 -0.237391 8.706382 29.246414 6.906382 21.531435 -7.811925 9.910605 -1.783067 40.182095 -0.000006 0.000020 -24.132324 -0.000001 0.000059 -16.842352 0.000028 -0.000000 -0.000020 8.530020 15.961163 -8.413432 7.398230 -0.835709 -1.949563 7.501610 0.103195 -1.842829 -0.000010 0.000035 -0.000031 9.585047 6.535291 -9.357133 7.156092 -0.910314 -0.765476 7.140674 0.034694 -0.650875 0.000001 0.000014 0.000017 14.277908 -8.365456 -10.309847 7.940980 1.843035 1.111531 7.960694 -0.048282 0.866170 -0.000027 0.000145 0.000010 19.351097 -23.773109 -12.956721 8.061941 3.613042 3.415107 7.924477 -0.155269 2.969743 0.000021 0.000002 -0.000005 0.000000 0.000000 0.000000 0.000000 0.000000 0.000000 -90.842049 0.280821 12.403441 -64.969872 36.562336 1.373707 -0.925617 -13.093354 38.904305 -2.464059 -8.760197 -15.101339 -10.146225 1.765806 40.110626 0.000021 0.000022 -24.713737 -0.000033 -0.000025 -17.149240 -0.000199 0.000007 0.000356 -14.004739 16.121265 -9.490898 -8.300748 -0.791234 2.244512 -8.309076 0.136043 2.101923 -0.000021 -0.000028 0.000009 -11.996317 6.621852 -10.102096 -7.954505 -0.895105 0.837491 -7.699256 0.045385 0.728780 0.001021 -0.000032 -0.000106 -10.897044 -8.471196 -8.955896 -8.639113 1.820789 -1.179952 -8.507315 -0.060442 -0.917801 0.000351 0.000006 0.000000 -8.176339 -24.463816 -10.666730 -8.410702 3.555585 -3.249681 -8.361298 -0.182179 -2.823701 -0.000231 0.000009 -0.000053 0.000000 0.000000 0.000000 0.000000 0.000000 0.000000 -0.666247 5.447181 11.846263 -0.137075 -0.555914 11.057052 -2.347922 2.698639 15.981716 -0.510817 0.738484 -19.811960 0.000000 0.000000 0.000000 0.000000 0.000000 0.000000 0.000000 0.000000 0.000000 2.677329 13.461595 17.723341 0.054562 0.660188 5.014153 0.682954 10.952393 16.642159 0.856462 -1.029702 -17.388071 0.000000 0.000000 0.000000 0.000000 0.000000 0.000000 0.000000 0.000000 0.000000 
-1.431528 88.442886 4.747235 -0.021937 -0.502455 -12.997419 -1.600474 -0.037526 8.391819 -0.532709 0.010144 2.550022 1.838322 -1.255773 8.709001 1.761719 -0.464931 4.910570 -0.700189 1.050604 3.525941 0.646296 1.401584 -3.470429 -0.279743 0.477577 -18.301815 0.000000 0.000000 0.000000 91.197243 -0.223965 7.384262 68.464821 -21.084742 3.417238 -0.243520 8.633817 29.356899 6.867811 21.466820 -7.772791 9.916224 -1.783860 40.178802 -0.000006 0.000020 -24.149055 -0.000001 0.000058 -16.853188 0.000028 -0.000000 -0.000020 8.589890 15.959551 -8.490768 7.429024 -0.833748 -1.962624 7.532687 0.105343 -1.854303 -0.000010 0.000036 -0.000030 9.662745 6.533307 -9.413199 7.189910 -0.909509 -0.770446 7.174151 0.035481 -0.654974 0.000001 0.000014 0.000017 14.361563 -8.362375 -10.351812 7.979443 1.841624 1.118955 7.998825 -0.049499 0.871898 -0.000027 0.000145 0.000010 19.426477 -23.766016 -12.968010 8.097403 3.608505 3.437092 7.962436 -0.159285 2.987734 0.000013 0.000002 -0.000005 0.000000 0.000000 0.000000 0.000000 0.000000 0.000000 -90.839584 0.271590 12.426205 -64.961563 36.725613 1.443039 -0.914560 -13.057009 38.893421 -2.543638 -8.859499 -15.083055 -10.162799 1.767231 40.103004 0.000021 0.000022 -24.753418 -0.000033 -0.000025 -17.176903 -0.000183 0.000006 0.000355 -14.122353 16.119961 -9.501491 -8.351027 -0.788863 2.259590 -8.359502 0.138426 2.115393 -0.000020 -0.000028 0.000009 -12.103006 6.621103 -10.103839 -7.999125 -0.894218 0.843023 -7.741939 0.046253 0.733449 0.001037 -0.000031 -0.000107 -10.981381 -8.468572 -8.947522 -8.670085 1.819455 -1.186513 -8.537488 -0.061443 -0.922952 0.000360 0.000006 0.000000 -8.256077 -24.451132 -10.637978 -8.426508 3.552092 -3.267885 -8.378199 -0.184727 -2.838975 -0.000242 0.000008 -0.000053 0.000000 0.000000 0.000000 0.000000 0.000000 0.000000 -0.646969 5.429020 11.861984 -0.136651 -0.554403 11.053655 -2.354073 2.687165 15.982632 -0.512530 0.740265 -19.806597 0.000000 0.000000 0.000000 0.000000 0.000000 0.000000 0.000000 0.000000 0.000000 2.695868 13.472940 17.725601 0.053788 0.657442 5.024062 0.665000 10.965430 16.628731 0.857182 -1.029693 -17.376118 0.000000 0.000000 0.000000 0.000000 0.000000 0.000000 0.000000 0.000000 0.000000 
-1.431081 88.441032 4.751320 -0.031612 -0.511329 -13.003654 -1.597600 -0.041807 8.398697 -0.527689 0.007111 2.550404 1.848273 -1.280226 8.706619 1.769059 -0.476168 4.889067 -0.686030 1.052280 3.504987 0.655494 1.413663 -3.474485 -0.276879 0.476461 -18.276880 0.000000 0.000000 0.000000 91.209732 -0.224183 7.400678 68.445358 -21.271414 3.464732 -0.249685 8.561948 29.454489 6.828333 21.412153 -7.732851 9.921431 -1.784453 40.175842 -0.000007 0.000020 -24.165037 -0.000001 0.000058 -16.863552 0.000027 -0.000000 -0.000020 8.644086 15.958892 -8.564384 7.460792 -0.831715 -1.975519 7.564257 0.107533 -1.865689 -0.000009 0.000036 -0.000030 9.733731 6.531796 -9.467050 7.224159 -0.908676 -0.775380 7.208057 0.036285 -0.659041 0.000002 0.000014 0.000017 14.437950 -8.359936 -10.394547 8.017942 1.840148 1.126400 8.037026 -0.050752 0.877635 -0.000027 0.000148 0.000010 19.495840 -23.760365 -12.982419 8.132907 3.603722 3.459067 8.000653 -0.163516 3.005746 0.000004 0.000001 -0.000005 0.000000 0.000000 0.000000 0.000000 0.000000 0.000000 -90.837372 0.263084 12.445013 -64.954498 36.881256 1.506851 -0.903680 -13.019073 38.884388 -2.625466 -8.967787 -15.062902 -10.179883 1.768727 40.095116 0.000021 0.000023 -24.794792 -0.000032 -0.000025 -17.205626 -0.000165 0.000005 0.000353 -14.238745 16.118433 -9.513649 -8.400343 -0.786484 2.274196 -8.408929 0.140790 2.128402 -0.000020 -0.000027 0.000010 -12.207883 6.620296 -10.107768 -8.042925 -0.893324 0.848399 -7.783995 0.047116 0.737962 0.001052 -0.000031 -0.000108 -11.063686 -8.465870 -8.942768 -8.700390 1.818110 -1.192932 -8.567067 -0.062443 -0.927992 0.000366 0.000006 0.000000 -8.333316 -24.438419 -10.614498 -8.442510 3.548486 -3.285864 -8.395423 -0.187331 -2.854037 -0.000251 0.000008 -0.000053 0.000000 0.000000 0.000000 0.000000 0.000000 0.000000 -0.627155 5.412139 11.878452 -0.136237 -0.552758 11.052383 -2.359967 2.675445 15.980874 -0.513999 0.741837 -19.801031 0.000000 0.000000 0.000000 0.000000 0.000000 0.000000 0.000000 0.000000 0.000000 2.713886 13.483165 17.728334 0.053087 0.654822 5.033604 0.645973 10.978664 16.614056 0.858323 -1.029622 -17.362894 0.000000 0.000000 0.000000 0.000000 0.000000 0.000000 0.000000 0.000000 0.000000 
-1.430962 88.438942 4.756460 -0.041958 -0.521054 -13.008992 -1.593440 -0.046094 8.404880 -0.522660 0.004439 2.549563 1.857499 -1.301201 8.702900 1.776228 -0.486246 4.868394 -0.675519 1.054579 3.484882 0.664391 1.424584 -3.477805 -0.274061 0.475167 -18.254082 0.000000 0.000000 0.000000 91.221344 -0.225666 7.416122 68.422310 -21.458214 3.514698 -0.255880 8.490294 29.538620 6.788629 21.367546 -7.692669 9.926374 -1.784892 40.173134 -0.000007 0.000021 -24.180649 -0.000001 0.000058 -16.873718 0.000027 -0.000000 -0.000020 8.692987 15.959080 -8.634728 7.493106 -0.829678 -1.988069 7.595900 0.109704 -1.876809 -0.000009 0.000036 -0.000030 9.798299 6.530711 -9.518970 7.258420 -0.907841 -0.780207 7.241975 0.037083 -0.663013 0.000002 0.000014 0.000017 14.507633 -8.358051 -10.438011 8.056072 1.838651 1.133756 8.074894 -0.052012 0.883299 -0.000027 0.000154 0.000010 19.559893 -23.755953 -12.999773 8.168220 3.598832 3.480741 8.038837 -0.167847 3.023540 -0.000005 0.000001 -0.000005 0.000000 0.000000 0.000000 0.000000 0.000000 0.000000 -90.835503 0.255404 12.460210 -64.948944 37.028206 1.564445 -0.892983 -12.980186 38.876827 -2.708022 -9.084602 -15.040991 -10.197434 1.770316 40.086956 0.000020 0.000023 -24.837688 -0.000032 -0.000024 -17.235308 -0.000147 0.000005 0.000349 -14.353229 16.116568 -9.527727 -8.448112 -0.784160 2.288087 -8.456795 0.143077 2.140736 -0.000020 -0.000027 0.000010 -12.310435 6.619397 -10.114017 -8.085381 -0.892449 0.853528 -7.824927 0.047956 0.742247 0.001066 -0.000031 -0.000109 -11.143933 -8.463051 -8.941402 -8.729746 1.816789 -1.199102 -8.595821 -0.063417 -0.932836 0.000369 0.000006 0.000000 -8.408566 -24.425627 -10.595792 -8.458714 3.544871 -3.303343 -8.412918 -0.189919 -2.868656 -0.000259 0.000007 -0.000053 0.000000 0.000000 0.000000 0.000000 0.000000 0.000000 -0.606591 5.396898 11.895475 -0.135834 -0.550992 11.052878 -2.365682 2.663537 15.976708 -0.515235 0.743218 -19.795277 0.000000 0.000000 0.000000 0.000000 0.000000 0.000000 0.000000 0.000000 0.000000 2.731594 13.492543 17.731691 0.052474 0.652366 5.042736 0.625930 10.992210 16.598082 0.859854 -1.029527 -17.348467 0.000000 0.000000 0.000000 0.000000 0.000000 0.000000 0.000000 0.000000 0.000000 
-1.431238 88.436638 4.762595 -0.053013 -0.531349 -13.013374 -1.587915 -0.050405 8.410473 -0.517667 0.002118 2.547443 1.866106 -1.319059 8.698213 1.783081 -0.495188 4.848710 -0.668211 1.057365 3.465395 0.672897 1.434336 -3.480517 -0.271252 0.473771 -18.233269 0.000000 0.000000 0.000000 91.232063 -0.228230 7.430318 68.396103 -21.643602 3.565977 -0.262081 8.418715 29.609013 6.749171 21.332567 -7.652802 9.931158 -1.785220 40.170589 -0.000007 0.000021 -24.196156 -0.000001 0.000058 -16.883879 0.000027 0.000000 -0.000020 8.736800 15.959962 -8.702047 7.525396 -0.827700 -2.000114 7.627075 0.111799 -1.887506 -0.000008 0.000036 -0.000030 9.856647 6.529982 -9.569069 7.292150 -0.907027 -0.784858 7.275362 0.037859 -0.666838 0.000002 0.000014 0.000017 14.571190 -8.356627 -10.482013 8.093330 1.837174 1.140926 8.111916 -0.053251 0.888817 -0.000027 0.000163 0.000010 19.619379 -23.752565 -13.019794 8.203012 3.593968 3.501845 8.076588 -0.172168 3.040898 -0.000015 0.000001 -0.000005 0.000000 0.000000 0.000000 0.000000 0.000000 0.000000 -90.833939 0.248579 12.472201 -64.944885 37.165745 1.615564 -0.882490 -12.941183 38.870430 -2.789702 -9.208924 -15.017543 -10.215391 1.772009 40.078575 0.000020 0.000023 -24.881882 -0.000033 -0.000024 -17.265802 -0.000129 0.000004 0.000344 -14.465051 16.114294 -9.543941 -8.493818 -0.781945 2.301066 -8.502603 0.145233 2.152219 -0.000019 -0.000027 0.000010 -12.410137 6.618379 -10.122584 -8.126008 -0.891612 0.858337 -7.864293 0.048756 0.746246 0.001079 -0.000031 -0.000110 -11.222127 -8.460099 -8.943094 -8.757941 1.815526 -1.204935 -8.623547 -0.064344 -0.937418 0.000368 0.000006 0.000000 -8.482333 -24.412764 -10.581292 -8.475144 3.541337 -3.320101 -8.430667 -0.192427 -2.882656 -0.000266 0.000007 -0.000053 0.000000 0.000000 0.000000 0.000000 0.000000 0.000000 -0.585210 5.383448 11.912778 -0.135443 -0.549132 11.054820 -2.371294 2.651457 15.970469 -0.516251 0.744433 -19.789387 0.000000 0.000000 0.000000 0.000000 0.000000 0.000000 0.000000 0.000000 0.000000 2.749155 13.501276 17.735729 0.051957 0.650109 5.051408 0.604979 11.006043 16.580923 0.861728 -1.029443 -17.332979 0.000000 0.000000 0.000000 0.000000 0.000000 0.000000 0.000000 0.000000 0.000000 
